<svg width="16" height="16" xmlns="http://www.w3.org/2000/svg"><g transform="translate(-1203 -974)" ><g id="Rating" transform="translate(34 805)"><g id="Search" transform="translate(1169 169)"><path d="M6.325 0C2.845 0 0 2.845 0 6.325s2.845 6.325 6.325 6.325c1.34 0 2.585-.422 3.61-1.14l4.157 4.163a1.12 1.12 0 0 0 1.581 0 1.12 1.12 0 0 0 0-1.581l-4.162-4.157a6.275 6.275 0 0 0 1.14-3.61C12.65 2.845 9.804 0 6.324 0zm0 2.232a4.076 4.076 0 0 1 4.093 4.093 4.076 4.076 0 0 1-4.093 4.093 4.076 4.076 0 0 1-4.093-4.093 4.076 4.076 0 0 1 4.093-4.093z" id="Shape"/></g></g></g></svg>
